<?xml version="1.0" encoding="UTF-8"?>
<svg id="Layer_1" data-name="Layer 1" xmlns="http://www.w3.org/2000/svg" xmlns:xlink="http://www.w3.org/1999/xlink" viewBox="0 0 160 160">
  <defs>
    <style>
      .cls-1 {
        stroke: #fff;
        stroke-miterlimit: 22.93;
        stroke-width: 6.3px;
      }

      .cls-1, .cls-2 {
        fill: none;
      }

      .cls-3 {
        fill: #fff;
      }

      .cls-2 {
        clip-rule: evenodd;
      }

      .cls-4, .cls-5 {
        fill: #004918;
      }

      .cls-5, .cls-6 {
        fill-rule: evenodd;
      }

      .cls-6 {
        fill: #002c52;
      }

      .cls-7 {
        clip-path: url(#clippath);
      }
    </style>
    <clipPath id="clippath">
      <path class="cls-2" d="M30.23,13.15h77.44c14.74,0,26.8,12.06,26.8,26.8v76.73H57.03c-14.74,0-26.8-12.06-26.8-26.8V13.15h0Z"/>
    </clipPath>
  </defs>
  <path class="cls-1" d="M30.23,13.15h77.44c14.74,0,26.8,12.06,26.8,26.8v76.73H57.03c-14.74,0-26.8-12.06-26.8-26.8V13.15h0Z"/>
  <path class="cls-5" d="M30.23,13.15h77.44c14.74,0,26.8,12.06,26.8,26.8v76.73H57.03c-14.74,0-26.8-12.06-26.8-26.8V13.15h0Z"/>
  <g class="cls-7">
    <path class="cls-3" d="M33,6.92l40.06,39.84-4.85,12.91L24.14,15.84l8.86-8.91h0ZM98.71,72.28l46.09,45.85-8.86,8.91-46.75-46.5,9.52-8.26h0Z"/>
    <path class="cls-3" d="M45.65,25.29h57.08c6.59,0,12.1,2.05,16.06,6.04,3.83,3.86,5.96,9.27,5.96,16.12,0,8.19-3.19,14.41-8.19,18.77-1.93,1.68-4.12,3.06-6.47,4.13-.29.13-.59.26-.89.39l-6.51-11.01.17-.05c2.08-.64,3.95-1.6,5.44-2.91,2.35-2.05,3.85-5.12,3.85-9.31,0-3.36-.81-5.78-2.27-7.25-1.51-1.52-3.96-2.3-7.15-2.3h-57.08v-12.61h0Z"/>
    <path class="cls-6" d="M68.21,59.68L30.23,21.89v67.99c0,14.74,12.06,26.8,26.8,26.8h68.49l-36.33-36.14,9.5-8.26h-37.39l6.91-12.61h0Z"/>
    <path class="cls-3" d="M51.06,60.22v28.1l-.02.05s-.13,7.59,6.96,7.59h29l12.67,12.61h-41.67c-19.34,0-19.52-19.18-19.52-20.25h-.02v-40.64l12.61,12.54h0Z"/>
    <polygon class="cls-3" points="98.71 72.28 61.3 72.28 68.21 59.68 102.69 59.68 98.71 72.28 98.71 72.28"/>
  </g>
  <path class="cls-4" d="M34.65,135.41h1.36c.91-.03,1.36-.45,1.36-1.26v-1.95c0-.49-.11-.84-.32-1.07-.21-.23-.58-.34-1.09-.34h-1.8v12.44h-3.61v-12.44h-1.54l1.69-3.06h6.38c1.39,0,2.39.32,2.99.95.6.63.9,1.55.9,2.75v2.72c0,1.58-.65,2.57-1.96,2.97l2.66,6.11h-3.78l-3.26-7.82h0ZM50.79,140.29h-4.09l-.73,2.94h-3.67l4.38-15.5h4.31l2.68,9.85h2l-1.36,2.3.92,3.34h-3.7l-.75-2.94h0ZM47.38,137.58h2.75l-1.36-5.45-1.39,5.45h0ZM57.22,143.23v-15.5h3.61v15.5h-3.61ZM67.75,140.17h4.99v3.06h-10.29l5.5-12.44h-5.15l1.69-3.06h8.75l-5.5,12.44h0ZM75.14,143.23v-12.44h-1.54l1.69-3.06h8.56v3.06h-5.1v3.19h4.66v2.88h-4.66v3.32h5.1v3.06h-8.71ZM85.92,132.4c0-1.52.4-2.68,1.2-3.48.8-.8,1.92-1.2,3.38-1.2h4.69l-1.67,3.06h-2.07c-.7,0-1.2.17-1.48.5-.29.33-.43.83-.43,1.49v5.71c0,.62.14,1.06.43,1.31.29.25.72.38,1.31.38h3.23v3.06h-4.31c-.59,0-1.14-.07-1.65-.22s-.96-.38-1.35-.69c-.39-.31-.7-.71-.92-1.21-.23-.49-.34-1.1-.34-1.8v-6.91h0ZM96.9,143.23v-15.5h3.61v6.16h3.52v-6.16h3.61v6.16h1.85l-1.85,3.01v6.33h-3.61v-6.33h-3.52v6.33h-3.61ZM111.24,143.23v-12.44h-1.54l1.69-3.06h8.56v3.06h-5.1v3.19h4.66v2.88h-4.66v3.32h5.1v3.06h-8.71ZM122.37,143.23v-15.5h3.34l3.3,5.47,3.3-5.47h3.34v15.5h-3.43v-9.65l-3.21,5.07-3.21-5.07v9.65h-3.43Z"/>
</svg>